<?xml version="1.0" encoding="utf-8"?>
<!-- Generator: Adobe Illustrator 16.0.0, SVG Export Plug-In . SVG Version: 6.00 Build 0)  -->
<!DOCTYPE svg PUBLIC "-//W3C//DTD SVG 1.1//EN" "http://www.w3.org/Graphics/SVG/1.1/DTD/svg11.dtd">
<svg version="1.1" id="Слой_1" xmlns="http://www.w3.org/2000/svg" xmlns:xlink="http://www.w3.org/1999/xlink" x="0px" y="0px"
	 width="24.078px" height="21.305px" viewBox="0 0 24.078 21.305" style="enable-background:new 0 0 24.078 21.305;"
	 xml:space="preserve">
<path style="fill:#ff6038;" d="M12.406,13.676c0-1.688,0.381-3.281,1.143-4.781c0.762-1.5,1.635-2.789,2.619-3.867
	c1.008-1.125,2.074-2.121,3.199-2.988C20.492,1.172,21.524,0.492,22.461,0l1.617,2.355c-1.125,0.703-2.132,1.406-3.023,2.109
	c-0.891,0.703-1.617,1.406-2.18,2.109c-0.703,0.821-1.301,1.711-1.793,2.672c-0.492,0.961-0.809,2.051-0.949,3.27h1.793
	c1.57,0,2.795,0.41,3.674,1.23c0.879,0.82,1.318,1.921,1.318,3.305c0,0.984-0.398,1.939-1.195,2.865
	c-0.796,0.926-1.886,1.389-3.27,1.389c-2.016,0-3.527-0.674-4.535-2.021C12.911,17.935,12.406,16.066,12.406,13.676z"/>
<path style="fill:#ff6038;" d="M0,13.676c0-1.688,0.381-3.281,1.143-4.781c0.762-1.5,1.635-2.789,2.619-3.867
	C4.77,3.902,5.836,2.906,6.961,2.039C8.086,1.172,9.118,0.492,10.055,0l1.617,2.355C10.547,3.059,9.54,3.762,8.648,4.465
	c-0.891,0.703-1.617,1.406-2.18,2.109C5.766,7.395,5.168,8.285,4.676,9.246c-0.492,0.961-0.809,2.051-0.949,3.27H5.52
	c1.57,0,2.795,0.41,3.674,1.23c0.879,0.82,1.318,1.921,1.318,3.305c0,0.984-0.398,1.939-1.195,2.865
	c-0.796,0.926-1.886,1.389-3.27,1.389c-2.016,0-3.527-0.674-4.535-2.021C0.504,17.935,0,16.066,0,13.676z"/>
</svg>
