<?xml version="1.0" encoding="utf-8"?>
<!-- Generator: Adobe Illustrator 16.0.0, SVG Export Plug-In . SVG Version: 6.00 Build 0)  -->
<!DOCTYPE svg PUBLIC "-//W3C//DTD SVG 1.1//EN" "http://www.w3.org/Graphics/SVG/1.1/DTD/svg11.dtd">
<svg version="1.1" id="Слой_1" xmlns="http://www.w3.org/2000/svg" xmlns:xlink="http://www.w3.org/1999/xlink" x="0px" y="0px"
	 width="27.531px" height="23.672px" viewBox="0 0 27.531 23.672" style="enable-background:new 0 0 27.531 23.672;"
	 xml:space="preserve">
<path style="fill:#FFFFFF;" d="M14.563,15.195c0-1.875,0.424-3.646,1.27-5.313c0.847-1.666,1.816-3.099,2.91-4.297
	c1.12-1.25,2.305-2.356,3.555-3.32c1.25-0.963,2.396-1.719,3.438-2.266l1.797,2.617c-1.25,0.781-2.369,1.563-3.359,2.344
	c-0.989,0.781-1.797,1.563-2.422,2.344c-0.781,0.912-1.445,1.901-1.992,2.969c-0.547,1.068-0.898,2.279-1.055,3.633h1.992
	c1.745,0,3.105,0.455,4.082,1.367c0.977,0.911,1.465,2.135,1.465,3.672c0,1.094-0.442,2.154-1.328,3.184
	c-0.885,1.028-2.096,1.543-3.633,1.543c-2.239,0-3.919-0.749-5.039-2.246C15.123,19.928,14.563,17.852,14.563,15.195z"/>
<path style="fill:#FFFFFF;" d="M0,15.195c0-1.875,0.424-3.646,1.27-5.313c0.847-1.666,1.816-3.099,2.91-4.297
	c1.12-1.25,2.305-2.356,3.555-3.32C8.984,1.303,10.131,0.547,11.172,0l1.797,2.617C11.719,3.398,10.6,4.18,9.609,4.961
	C8.62,5.742,7.813,6.523,7.188,7.305c-0.781,0.912-1.445,1.901-1.992,2.969c-0.547,1.068-0.898,2.279-1.055,3.633h1.992
	c1.745,0,3.105,0.455,4.082,1.367c0.977,0.911,1.465,2.135,1.465,3.672c0,1.094-0.442,2.154-1.328,3.184
	c-0.885,1.028-2.096,1.543-3.633,1.543c-2.239,0-3.919-0.749-5.039-2.246C0.561,19.928,0,17.852,0,15.195z"/>
</svg>
